<svg width="722" height="84" viewBox="0 0 722 84" fill="none" xmlns="http://www.w3.org/2000/svg">
<g clip-path="url(#clip0_15_156)">
<path d="M17.2502 66L0.700195 7.4H19.1502L23.5002 27.6L28.0002 48.8L32.2502 27.6L36.7502 7.4H49.9002L35.4002 66H17.2502ZM50.5272 66V33.65L47.5272 31.8V26.45L58.2772 23.5H66.6272V66H50.5272ZM57.7772 18.9L49.5772 10.65V8.9L57.7772 0.699999H59.6772L68.2272 8.9V10.65L59.6772 18.9H57.7772ZM89.6752 66H73.5252V33.65L70.5252 31.8V26.45L81.2752 23.5H89.7752V29.95L90.3752 29.2C90.7752 28.6667 91.3585 28.0333 92.1252 27.3C92.9252 26.5667 93.8085 25.85 94.7752 25.15C95.7419 24.4167 96.8919 23.8 98.2252 23.3C99.5919 22.7667 100.925 22.5 102.225 22.5C106.792 22.5 110.008 23.75 111.875 26.25C113.775 28.75 114.725 32.9333 114.725 38.8C114.725 39 114.725 39.3 114.725 39.7C114.692 40.1 114.675 40.4167 114.675 40.65V66H98.1752V39.2C98.2752 36.0667 96.9419 34.5 94.1752 34.5C93.9752 34.5 93.7752 34.5167 93.5752 34.55C93.4085 34.5833 93.2419 34.6167 93.0752 34.65C92.9419 34.6833 92.7752 34.75 92.5752 34.85C92.4085 34.9167 92.2585 34.9833 92.1252 35.05C91.9919 35.0833 91.8419 35.1667 91.6752 35.3C91.5085 35.4 91.3752 35.4833 91.2752 35.55C91.1752 35.6167 91.0252 35.7333 90.8252 35.9C90.6585 36.0333 90.5252 36.1333 90.4252 36.2C90.3585 36.2667 90.2252 36.3833 90.0252 36.55C89.8585 36.6833 89.7419 36.7833 89.6752 36.85V66ZM137.136 66H120.986V33.65L117.986 31.8V26.45L128.736 23.5H137.236V29.95L137.836 29.2C138.236 28.6667 138.819 28.0333 139.586 27.3C140.386 26.5667 141.269 25.85 142.236 25.15C143.203 24.4167 144.353 23.8 145.686 23.3C147.053 22.7667 148.386 22.5 149.686 22.5C154.253 22.5 157.469 23.75 159.336 26.25C161.236 28.75 162.186 32.9333 162.186 38.8C162.186 39 162.186 39.3 162.186 39.7C162.153 40.1 162.136 40.4167 162.136 40.65V66H145.636V39.2C145.736 36.0667 144.403 34.5 141.636 34.5C141.436 34.5 141.236 34.5167 141.036 34.55C140.869 34.5833 140.703 34.6167 140.536 34.65C140.403 34.6833 140.236 34.75 140.036 34.85C139.869 34.9167 139.719 34.9833 139.586 35.05C139.453 35.0833 139.303 35.1667 139.136 35.3C138.969 35.4 138.836 35.4833 138.736 35.55C138.636 35.6167 138.486 35.7333 138.286 35.9C138.119 36.0333 137.986 36.1333 137.886 36.2C137.819 36.2667 137.686 36.3833 137.486 36.55C137.319 36.6833 137.203 36.7833 137.136 36.85V66ZM188.947 83.2C185.514 83.2 182.28 82.7 179.247 81.7C176.214 80.7 173.997 79.35 172.597 77.65L175.197 72.25C177.13 73.35 180.197 73.9 184.397 73.9C185.73 73.9 186.88 73.75 187.847 73.45C188.814 73.15 189.68 72.6167 190.447 71.85C191.214 71.1167 191.797 70.0667 192.197 68.7C192.597 67.3333 192.814 65.65 192.847 63.65V59.35L192.347 60.15C192.014 60.6833 191.497 61.3333 190.797 62.1C190.13 62.8333 189.364 63.5833 188.497 64.35C187.63 65.0833 186.564 65.7167 185.297 66.25C184.064 66.7833 182.797 67.05 181.497 67.05C176.53 67.05 173.03 65.6667 170.997 62.9C168.964 60.1 167.947 55.4 167.947 48.8V31.05L166.147 29.25V23.5H184.347V51.95C184.347 53.4833 184.58 54.6167 185.047 55.35C185.547 56.05 186.53 56.4 187.997 56.4C188.43 56.4 188.864 56.3333 189.297 56.2C189.73 56.0333 190.147 55.8167 190.547 55.55C190.98 55.2833 191.43 54.95 191.897 54.55V31.05L189.147 29.25V23.5H208.197V60.15C208.197 67.5167 206.63 73.2 203.497 77.2C200.364 81.2 195.514 83.2 188.947 83.2ZM254.801 56.2C257.167 56.2 258.901 55.5333 260.001 54.2C261.101 52.8667 261.651 51.2833 261.651 49.45V45.95C261.651 43.7833 260.951 42.25 259.551 41.35C258.151 40.4167 256.567 39.95 254.801 39.95H250.901V56.2H254.801ZM260.951 22.4C260.951 20.4 260.401 19.0167 259.301 18.25C258.201 17.45 256.617 17.05 254.551 17.05H250.901V31.5H254.951C256.884 31.5 258.367 30.75 259.401 29.25C260.434 27.7167 260.951 25.85 260.951 23.65V22.4ZM258.201 66.45C255.601 66.45 252.234 66.3833 248.101 66.25C243.967 66.1167 241.001 66.0333 239.201 66H234.401V7.4H243.051C245.151 7.4 247.551 7.33333 250.251 7.2C252.951 7.03334 254.901 6.95 256.101 6.95C260.001 6.95 263.284 7.26667 265.951 7.9C268.651 8.53334 270.767 9.48333 272.301 10.75C273.834 12.0167 274.917 13.4833 275.551 15.15C276.217 16.8167 276.551 18.8 276.551 21.1C276.551 24.6333 275.734 27.6667 274.101 30.2C272.467 32.7333 270.101 34.3167 267.001 34.95C274.867 35.65 278.801 40.2667 278.801 48.8C278.801 51.3667 278.417 53.7 277.651 55.8C276.884 57.8667 275.701 59.7167 274.101 61.35C272.534 62.95 270.401 64.2 267.701 65.1C265.001 66 261.834 66.45 258.201 66.45ZM300.173 66H284.023V33.65L281.023 31.8V26.15L291.773 23.5H295.823L297.273 35.4C298.64 27.2333 303.023 23.15 310.423 23.15C311.256 23.15 312.123 23.3 313.023 23.6L311.323 41.4C310.623 40.7667 309.09 40.45 306.723 40.45C303.323 40.45 301.14 41.35 300.173 43.15V66ZM337.082 61.05C338.549 61.05 339.665 60.45 340.432 59.25C341.232 58.0167 341.632 56.3333 341.632 54.2V38.4C341.632 31.9 340.099 28.65 337.032 28.65C335.599 28.65 334.482 29.2333 333.682 30.4C332.882 31.5667 332.482 33.2167 332.482 35.35V51.6C332.482 57.9 334.015 61.05 337.082 61.05ZM336.682 67.05C329.049 67.05 323.465 65.3167 319.932 61.85C316.399 58.3833 314.632 52.85 314.632 45.25C314.632 37.7167 316.415 32.05 319.982 28.25C323.549 24.4167 329.349 22.5 337.382 22.5C345.215 22.5 350.865 24.3333 354.332 28C357.832 31.6333 359.582 37.15 359.582 44.55C359.582 52.2167 357.732 57.8833 354.032 61.55C350.365 65.2167 344.582 67.05 336.682 67.05ZM381.179 66H365.029V33.65L362.029 31.8V26.45L372.779 23.5H381.279V29.95C381.446 29.7167 381.679 29.4167 381.979 29.05C382.312 28.65 382.912 28.0333 383.779 27.2C384.646 26.3667 385.529 25.6333 386.429 25C387.362 24.3667 388.479 23.8 389.779 23.3C391.112 22.7667 392.429 22.5 393.729 22.5C397.062 22.5 399.612 23.1333 401.379 24.4C403.146 25.6667 404.396 27.7333 405.129 30.6C406.262 28.6333 407.996 26.8 410.329 25.1C412.696 23.3667 415.296 22.5 418.129 22.5C421.262 22.5 423.696 23.05 425.429 24.15C427.196 25.2167 428.479 27.05 429.279 29.65C430.079 32.25 430.479 35.9167 430.479 40.65V66H414.229V39.2C414.229 37.7333 413.879 36.5833 413.179 35.75C412.479 34.9167 411.412 34.5 409.979 34.5C409.012 34.5 407.696 35.3 406.029 36.9C406.129 38.5 406.179 40.2333 406.179 42.1V66H389.679V39.2C389.779 36.0667 388.446 34.5 385.679 34.5C385.479 34.5 385.279 34.5167 385.079 34.55C384.912 34.5833 384.746 34.6167 384.579 34.65C384.446 34.6833 384.279 34.75 384.079 34.85C383.912 34.9167 383.762 34.9833 383.629 35.05C383.496 35.0833 383.346 35.1667 383.179 35.3C383.012 35.4 382.879 35.4833 382.779 35.55C382.679 35.6167 382.529 35.7333 382.329 35.9C382.162 36.0333 382.029 36.1333 381.929 36.2C381.862 36.2667 381.729 36.3833 381.529 36.55C381.362 36.6833 381.246 36.7833 381.179 36.85V66ZM456.906 61.05C458.373 61.05 459.49 60.45 460.256 59.25C461.056 58.0167 461.456 56.3333 461.456 54.2V38.4C461.456 31.9 459.923 28.65 456.856 28.65C455.423 28.65 454.306 29.2333 453.506 30.4C452.706 31.5667 452.306 33.2167 452.306 35.35V51.6C452.306 57.9 453.84 61.05 456.906 61.05ZM456.506 67.05C448.873 67.05 443.29 65.3167 439.756 61.85C436.223 58.3833 434.456 52.85 434.456 45.25C434.456 37.7167 436.24 32.05 439.806 28.25C443.373 24.4167 449.173 22.5 457.206 22.5C465.04 22.5 470.69 24.3333 474.156 28C477.656 31.6333 479.406 37.15 479.406 44.55C479.406 52.2167 477.556 57.8833 473.856 61.55C470.19 65.2167 464.406 67.05 456.506 67.05ZM513.671 66V20.65H501.971V7.4H542.271V20.65H530.571V66H513.671ZM563.405 66H547.255V33.65L544.255 31.8V26.15L555.005 23.5H559.055L560.505 35.4C561.872 27.2333 566.255 23.15 573.655 23.15C574.489 23.15 575.355 23.3 576.255 23.6L574.555 41.4C573.855 40.7667 572.322 40.45 569.955 40.45C566.555 40.45 564.372 41.35 563.405 43.15V66ZM601.814 61.55L601.314 62.1C600.981 62.5 600.464 62.9667 599.764 63.5C599.098 64.0333 598.314 64.5667 597.414 65.1C596.548 65.6333 595.481 66.0833 594.214 66.45C592.948 66.85 591.648 67.05 590.314 67.05C581.314 67.05 576.814 62.6 576.814 53.7C576.814 51.9667 577.131 50.3833 577.764 48.95C578.398 47.4833 579.214 46.25 580.214 45.25C581.214 44.25 582.414 43.3667 583.814 42.6C585.214 41.8 586.614 41.1833 588.014 40.75C589.448 40.2833 590.948 39.9 592.514 39.6C594.081 39.3 595.481 39.1 596.714 39C597.948 38.9 599.131 38.85 600.264 38.85V37.95C600.264 35.9167 599.714 34.4833 598.614 33.65C597.548 32.8167 595.814 32.4 593.414 32.4C591.348 32.4 589.198 32.65 586.964 33.15C584.731 33.6167 582.981 34.1833 581.714 34.85L578.514 28.05C580.781 26.5833 583.731 25.3 587.364 24.2C590.998 23.0667 594.698 22.5 598.464 22.5C601.798 22.5 604.548 22.8333 606.714 23.5C608.881 24.1333 610.631 25.2333 611.964 26.8C613.331 28.3333 614.298 30.3 614.864 32.7C615.431 35.0667 615.714 38.0833 615.714 41.75V62.1L617.114 66H603.414L601.814 61.55ZM597.864 58.25C598.298 58.25 598.698 58.1667 599.064 58C599.464 57.8 599.764 57.6167 599.964 57.45C600.164 57.25 600.264 57.15 600.264 57.15V45.15C598.231 45.15 596.614 45.7167 595.414 46.85C594.214 47.95 593.614 49.6667 593.614 52C593.614 56.1667 595.031 58.25 597.864 58.25ZM631.809 66L617.109 23.5H635.059L638.259 38.85L640.559 52.1L643.109 38.85L646.809 23.5H660.309L647.559 66H631.809ZM685.575 40.15C685.575 35.9167 685.358 32.9167 684.925 31.15C684.491 29.3833 683.691 28.5 682.525 28.5C681.525 28.5 680.708 28.6833 680.075 29.05C679.441 29.3833 678.975 29.9333 678.675 30.7C678.375 31.4333 678.175 32.2 678.075 33C678.008 33.7667 677.975 34.75 677.975 35.95V40.15H685.575ZM681.575 67.05C677.841 67.05 674.591 66.4833 671.825 65.35C669.091 64.2167 666.925 62.6333 665.325 60.6C663.758 58.5667 662.608 56.2833 661.875 53.75C661.141 51.1833 660.775 48.3333 660.775 45.2C660.775 37.7333 662.675 32.0833 666.475 28.25C670.275 24.4167 675.591 22.5 682.425 22.5C688.991 22.5 693.691 24.05 696.525 27.15C699.358 30.2167 700.775 35.1667 700.775 42V47.55H677.925V48.5C677.925 50.4667 678.125 52.0833 678.525 53.35C678.958 54.6167 679.575 55.55 680.375 56.15C681.175 56.75 681.991 57.15 682.825 57.35C683.658 57.55 684.675 57.65 685.875 57.65C687.041 57.65 688.291 57.5 689.625 57.2C690.991 56.9 692.358 56.4333 693.725 55.8C695.125 55.1667 696.291 54.4167 697.225 53.55L700.175 58.6C698.941 60.6 697.125 62.2833 694.725 63.65C692.358 64.9833 690.075 65.8833 687.875 66.35C685.675 66.8167 683.575 67.05 681.575 67.05ZM705.641 66V9.45L702.641 7.65V3L718.691 0.5H721.941V66H705.641Z" fill="white"/>
</g>
<defs>
<clipPath id="clip0_15_156">
<rect width="722" height="84" fill="white"/>
</clipPath>
</defs>
</svg>
