<svg xmlns="http://www.w3.org/2000/svg" viewBox="0 0 1440 320"><path fill="#fff" fill-opacity="1" d="M0,160L24,176C48,192,96,224,144,202.7C192,181,240,107,288,112C336,117,384,203,432,213.3C480,224,528,160,576,128C624,96,672,96,720,80C768,64,816,32,864,42.7C912,53,960,107,1008,112C1056,117,1104,75,1152,90.7C1200,107,1248,181,1296,208C1344,235,1392,213,1416,202.7L1440,192L1440,0L1416,0C1392,0,1344,0,1296,0C1248,0,1200,0,1152,0C1104,0,1056,0,1008,0C960,0,912,0,864,0C816,0,768,0,720,0C672,0,624,0,576,0C528,0,480,0,432,0C384,0,336,0,288,0C240,0,192,0,144,0C96,0,48,0,24,0L0,0Z"></path></svg>